<svg width="44.002" height="49.7" xmlns="http://www.w3.org/2000/svg"><path d="M44.002 15.1V7l-9.8-3.8v6.3l-4.5-1.8V2.8l-7.5-2.8-7.5 2.7v5.1l-5.5 1.6V3.7l-9.2 3.7v.5c0 .1-.1 8.4 1.1 15l.2.8 20.8-6.7 19.1 6.2c-.5 1.5-1.6 5-2.9 7.3l-16.1-5.7-18.4 6.1.3.8c.1.2 2.4 5.3 5.8 7.8l.3.2 12-3.6 10.4 3.6c-1.8 1.7-6.1 5.7-10.5 8.2l-2.5-1.8-2.6-.1 5 3.7.4-.2c6.1-3.4 11.8-9.3 12.1-9.6l.8-.9-13.3-4.4-11.7 3.5c-2.2-1.8-3.9-4.9-4.6-6.3l16.3-5.4 16.8 5.9.3-.5c1.9-2.9 3.6-8.6 3.6-8.8l.2-.7-20.9-6.8-19.5 6.2c-.9-5.4-1-11.6-1-13.4l6.2-2.5v5.4l8.5-2.4V3.7l6-2.2 6.1 2.3v4.9l7.5 3.1V5.5l6.8 2.6v6.5z"/></svg>