<svg xmlns="http://www.w3.org/2000/svg" style="enable-background:new 0 0 56 56" xml:space="preserve" width="688" height="880"><rect id="backgroundrect" width="100%" height="100%" x="0" y="0" fill="none" stroke="none"/><style>.st1{fill:#fff}.st2{fill:#00bcd4}</style><g class="currentLayer"><g id="Ebene_2"><g id="Ebene_3"><path id="XMLID_16_" d="M344.118 799.57V87.968s162.091 10.996 282.455 50.268c0 0-1.605 127.24-1.605 252.91 0 175.936-138.017 364.44-280.85 398.999M687.558 92.68c-146.042-48.697-332.206-62.835-343.44-62.835-11.234 0-194.187 14.138-343.44 62.835V399c0 213.637 171.72 439.842 343.44 480.684 171.72-42.413 343.44-267.047 343.44-479.114V92.681" style="fill:#0097a7"/><path id="XMLID_15_" class="st1" d="M623.364 600.07 334.489 843.554l4.815-797.999 292.084 64.406z"/></g><g id="Ebene_2_1_"><path id="XMLID_12_" class="st2" d="M344.118 783.861V53.41s157.276 21.993 280.85 62.835c0 0 1.605 130.382 1.605 259.193 0 175.937-138.017 388.003-280.85 422.562M687.558 75.402C539.91 26.705 355.352 0 344.118 0S149.931 25.134.678 75.402V381.72c0 212.067 170.116 438.271 343.44 479.114 171.72-42.413 343.44-267.047 343.44-479.114V75.402"/></g><g id="Ebene_1_2_"><path id="XMLID_7_" class="st2" d="M559.17 400.57c0-114.673-94.687-210.495-215.052-210.495v42.413c17.654 25.134 30.493 51.839 40.122 83.256h-40.122v40.842h49.751c1.605 14.138 3.21 26.705 3.21 40.843s-1.605 28.275-3.21 40.842h-49.75v40.843h40.12c-9.628 29.846-24.072 58.122-40.12 83.256v42.413c117.154 3.142 215.05-89.54 215.05-204.213zm-49.751-43.984c3.21 14.138 4.814 26.705 4.814 40.843s-1.605 28.275-4.814 40.842h-73.824c1.605-14.138 3.21-26.704 3.21-40.842s-1.605-28.276-3.21-40.843h73.824zm-16.049-40.842h-62.59c-8.024-26.705-16.048-51.839-28.887-73.83 36.912 12.566 69.01 39.27 91.477 73.83zm-94.686 241.913c12.838-23.563 22.468-48.697 28.887-75.402h62.59c-19.259 36.13-51.356 62.835-91.477 75.402z"/><path id="XMLID_2_" class="st1" d="M344.118 607.925V565.51c-17.653-25.134-30.492-51.838-40.121-83.256h40.121v-40.842h-49.75c-1.605-14.138-3.21-26.705-3.21-40.843s1.605-28.275 3.21-40.842h49.75v-40.842h-40.121c9.63-29.847 24.073-58.122 40.121-83.256v-42.414c-117.154 0-215.05 92.681-215.05 210.496 0 111.532 97.896 204.213 215.05 204.213zm-93.081-251.339c-1.605 14.138-3.21 26.705-3.21 40.843s1.605 28.275 3.21 40.842h-72.219c-3.21-14.138-4.814-26.704-4.814-40.842s1.604-28.276 4.814-40.843h72.219zm38.516-114.673c-12.839 23.563-22.468 48.697-28.887 73.83h-62.59c19.259-34.558 51.356-61.263 91.477-73.83zm-94.686 240.342h62.59c8.023 26.705 16.048 51.839 28.887 75.402-36.912-12.567-69.01-39.272-91.477-75.402z"/></g></g></g></svg>