<svg version="1.0" xmlns="http://www.w3.org/2000/svg" width="170.667" height="170.667" viewBox="0 0 128 128"><g fill="#bf3d27"><path d="M50 7.6C17.9 16.2-.7 48.9 8.7 80.3c4.3 14.6 16.5 29.2 29.5 35.5 32.7 15.9 71.2-.7 81.7-35.2 2.5-8.2 2.8-23.3.6-31.6-5.3-19.9-22-36.4-42-41.5-7.4-1.9-21.3-1.8-28.5.1zm24.2 8.5C96.4 20.7 113 41 113 63.4c0 13.8-4.6 25.1-14 34.6-24.2 24.3-64 17.5-78.6-13.5C3.3 48.4 35.1 7.9 74.2 16.1z"/><path d="M50.7 22c-15.7 5-27 18.3-29.9 35-4.3 25 14.6 49 40 50.7 16.6 1.2 30.9-5.7 40.3-19.4 13.6-19.7 7.5-48.8-12.9-61.7C77.8 20 62.6 18.2 50.7 22zM64 41" fill="#fff"/><path d="M51 20.8c-7.8 2.6-11.6 4.8-16.7 9.5C22.6 41 17.2 56.6 19.9 71.5c4.2 23 24.6 39 47.5 37.2 18.8-1.4 34.5-13.6 39.7-30.7 2.7-9.1 2.4-22.8-.9-31-4.4-11.1-14.3-20.9-25.2-25.1-7.8-3.1-22.6-3.6-30-1.1zm8.6 26.4c-2 2.9-3.6 6-3.6 6.8 0 .9 1.9 3.5 4.3 5.8l4.4 4.3 4.6-5c2.6-2.8 4.7-5.3 4.7-5.6 0-.3-1.8-3.3-4-6.6-2.3-3.2-3.7-5.9-3.3-5.9.5 0 3.2 1.6 6.1 3.6 4.2 2.7 5.9 3.4 8.1 2.9 3.1-.7 4.3.8 3.4 4.3-.3 1.3.8 3.9 3.1 7.3 2 3 3.6 5.7 3.6 6.2 0 .4-2.7-1-5.9-3.3-3.3-2.2-6.3-4-6.6-4-1.1 0-9.5 8.3-9.5 9.4 0 .6 3.4 4.5 7.6 8.7 6.7 6.7 7.3 7.7 5.9 8.9-1.4 1.2-2.6.3-9.6-6.6L65 70.5l-7.8 7.8c-7.9 7.9-9.8 8.9-10.9 6.1-.4-1.1 1.9-4 7.3-9.5l7.8-7.9-3.8-3.9c-2.1-2.2-4.7-4.1-5.7-4.4-1.1-.3-4 1-7.4 3.5-3.1 2.2-5.8 3.8-6 3.6-.2-.2 1.3-3 3.5-6.2 3-4.7 3.7-6.4 3-8.1-1.1-3 .5-4.5 4-3.8 2.1.4 4.1-.4 8.1-3.1 2.9-1.9 5.5-3.4 5.7-3.2.2.3-1.2 2.8-3.2 5.8z"/></g></svg>