<svg viewBox="0 0 256 256" xmlns="http://www.w3.org/2000/svg"><path d="M128.506 1.222c-38.817 0-85.639 9.128-124.183 29.22 0 43.392-.532 151.49 124.183 225.355C253.228 181.934 252.698 73.828 252.698 30.442c-38.55-20.092-85.372-29.22-124.192-29.22z" fill="#68bc71"/><path d="M128.378 255.722C3.784 181.86 4.324 73.812 4.324 30.435c38.504-20.07 85.266-29.2 124.054-29.22v254.5z" fill="#67b279"/><path d="m123.98 171.088 75.097-101.212c-5.503-4.411-10.33-1.298-12.987 1.112l-.097.008-62.615 65.137-23.592-28.391c-11.255-13.003-26.555-3.085-30.13-.464l54.326 63.811" fill="#fff"/><g><g transform="matrix(.4625 0 0 .4625 294.995 47.268)"><path d="M-299.04 399.58c-6.886 0-13.966 5.518-13.966 15.176 0 8.83 6.225 15.066 13.966 15.066 6.39 0 9.237-4.289 9.237-4.289v1.87c0 .883.836 1.87 1.87 1.87h4.618V400.24h-6.488v3.684s-2.871-4.344-9.237-4.344zm1.156 5.936c5.668 0 8.641 4.985 8.641 9.237 0 4.736-3.53 9.234-8.63 9.234-4.262 0-8.532-3.452-8.532-9.296 0-5.275 3.675-9.175 8.52-9.175zM-274.29 429.27c-.997 0-1.87-.715-1.87-1.87v-27.162h6.489v3.593c1.47-2.21 4.342-4.261 8.75-4.261 7.207 0 11.044 5.744 11.044 11.116v18.585h-4.509c-1.182 0-1.98-.99-1.98-1.98v-15.176c0-2.977-1.823-6.593-6.042-6.593-4.553 0-7.263 4.302-7.263 8.353v15.396zM-230.97 399.58c-6.886 0-13.966 5.518-13.966 15.176 0 8.83 6.225 15.066 13.966 15.066 6.39 0 9.237-4.289 9.237-4.289v1.87c0 .883.836 1.87 1.87 1.87h4.618v-43.548h-6.488v18.2s-2.871-4.344-9.237-4.344zm1.156 5.936c5.668 0 8.641 4.985 8.641 9.237 0 4.736-3.53 9.234-8.63 9.234-4.262 0-8.532-3.452-8.532-9.296 0-5.275 3.675-9.175 8.52-9.175zM-206.22 429.27c-.997 0-1.87-.715-1.87-1.87v-27.162h6.489v4.84c1.116-2.712 3.526-5.17 7.807-5.17 1.194 0 2.31.22 2.31.22v6.709s-1.394-.55-3.08-.55c-4.552 0-7.037 4.302-7.037 8.353v14.63zM-152.12 429.27c-.997 0-1.87-.715-1.87-1.87v-27.162h6.489v29.032zM-128.48 399.58c-6.886 0-13.966 5.518-13.966 15.176 0 8.83 6.225 15.066 13.966 15.066 6.39 0 9.237-4.289 9.237-4.289v1.87c0 .883.836 1.87 1.87 1.87h4.619v-43.548h-6.489v18.2s-2.871-4.344-9.237-4.344zm1.156 5.936c5.668 0 8.641 4.985 8.641 9.237 0 4.736-3.53 9.234-8.63 9.234-4.262 0-8.532-3.452-8.532-9.296 0-5.275 3.675-9.175 8.52-9.175z"/><circle cx="-150.8" cy="389.69" r="4.291"/><path d="M-174.38 399.57c-7.211 0-15.134 5.383-15.134 15.134 0 8.886 6.748 15.118 15.118 15.118 10.315 0 15.352-8.292 15.352-15.062 0-8.307-6.486-15.19-15.336-15.19zm.024 6.059c4.986 0 8.706 4.02 8.706 9.093 0 5.162-3.949 9.145-8.692 9.145-4.402 0-8.682-3.583-8.682-9.058 0-5.567 4.07-9.18 8.667-9.18z"/></g><path d="m263.84 306.59 21.933-37.994c1.238-2.13.49-4.836-1.612-6.073-2.101-1.238-4.836-.519-6.045 1.611l-22.22 38.484c-16.955-7.742-36.038-12.06-56.56-12.06-20.524 0-39.607 4.318-56.56 12.06l-22.222-38.484a4.431 4.431 0 0 0-6.073-1.611 4.431 4.431 0 0 0-1.612 6.073l21.933 37.994c-37.822 20.494-63.439 58.776-67.67 103.59h264.41c-4.231-44.816-29.849-83.098-67.699-103.59zm-125.21 66.461c-6.13 0-11.082-4.98-11.082-11.082 0-6.13 4.98-11.082 11.082-11.082 6.13 0 11.082 4.98 11.082 11.082.029 6.102-4.95 11.082-11.082 11.082zm121.38 0c-6.13 0-11.082-4.98-11.082-11.082 0-6.13 4.98-11.082 11.082-11.082 6.13 0 11.082 4.98 11.082 11.082.029 6.102-4.95 11.082-11.082 11.082z" fill="#34de19" style="fill:#32de84" transform="matrix(.35 0 0 .35 126.81 73.532)"/></g><path d="M179.13 200a3.801 3.801 0 0 1-3.788 3.801 3.801 3.801 0 0 1-3.814-3.774 3.801 3.801 0 0 1 3.76-3.828 3.801 3.801 0 0 1 3.842 3.747l-3.801.054z" fill="#fff"/></svg>