<svg xmlns="http://www.w3.org/2000/svg" viewBox="8.5 1 111.5 127" version="1"><path stroke-linejoin="round" d="M448 669c-81-57-81-57-81-200 35 0 46 0 81-28m0 228c80-57 80-57 80-200-34 0-46 0-80-28" transform="matrix(-.69452 0 0 .5611 375 -247)" fill="maroon" stroke="#fff" stroke-linecap="round" stroke-width="2"/><g stroke="#fff" transform="translate(-18 -17)"><circle cx="102" cy="81" fill="none" stroke-width="6" transform="translate(-42 -31) scale(1.33333)" r="12"/><path fill="#fff" d="M82 81c0 11-5 16-16 16s-16-5-16-16V57h8v24c0 7 1 8 8 8s8-1 8-8V57h8z" stroke="none"/></g></svg>