<svg xmlns="http://www.w3.org/2000/svg" width="128" height="128" xmlns:xlink="http://www.w3.org/1999/xlink">
  <defs>
    <linearGradient id="a">
      <stop offset="0" /><stop offset="1" stop-opacity="0" />
    </linearGradient>
    <radialGradient cx="82.145" cy="81.055" r="22.573" xlink:href="#a" fx="82.145" fy="81.055"
                    gradientTransform="matrix(1 0 0 1.258 0 -20.947)" gradientUnits="userSpaceOnUse" />
  </defs>
  <g stroke="#fff">
    <path fill="#800000" stroke-width="3" d="M1.5 36.78v54.44l35.28 35.28h54.44l35.28-35.28V36.78L91.22 1.5H36.78z" />
    <g fill="#fff" stroke-width="2" style="text-align:center;line-height:125%;-inkscape-font-specification:Ubuntu"
       font-size="100.219" letter-spacing="0" word-spacing="0" text-anchor="middle" font-family="Ubuntu">
      <path
        d="M83.97 90.23c-2.03.56-4.7 1.16-8.05 1.8-3.33.62-7.2.94-11.57.94-3.8 0-7-.62-9.6-1.85-2.6-1.23-4.7-2.97-6.3-5.22-1.58-2.25-2.72-4.9-3.42-7.96-.7-3.05-1.05-6.44-1.05-10.17V37h8.85v28.66c0 6.68.96 11.46 2.86 14.34 1.9 2.88 5.1 4.32 9.6 4.32.96 0 1.94-.03 2.96-.1 1-.07 1.97-.16 2.85-.27.9-.1 1.7-.2 2.44-.3.73-.12 1.26-.24 1.57-.38V37h8.87z"
        style="-inkscape-font-specification:Ubuntu" />
    </g>
  </g>
</svg> 
