<?xml version="1.0" encoding="UTF-8"?>
<svg width="44.002" height="49.7" version="1.1" viewBox="0 0 44.002 49.7" xmlns="http://www.w3.org/2000/svg" xmlns:cc="http://creativecommons.org/ns#" xmlns:dc="http://purl.org/dc/elements/1.1/" xmlns:rdf="http://www.w3.org/1999/02/22-rdf-syntax-ns#">
 <metadata>
  <rdf:RDF>
   <cc:Work rdf:about="">
    <dc:format>image/svg+xml</dc:format>
    <dc:type rdf:resource="http://purl.org/dc/dcmitype/StillImage"/>
    <dc:title/>
   </cc:Work>
  </rdf:RDF>
 </metadata>
 <path d="m44.002 15.1v-8.1l-9.8-3.8v6.3l-4.5-1.8v-4.9l-7.5-2.8-7.5 2.7v5.1l-5.5 1.6v-5.7l-9.2 3.7v0.5c0 0.1-0.1 8.4 1.1 15l0.2 0.8 20.8-6.7 19.1 6.2c-0.5 1.5-1.6 5-2.9 7.3l-16.1-5.7-18.4 6.1 0.3 0.8c0.1 0.2 2.4 5.3 5.8 7.8l0.3 0.2 12-3.6 10.4 3.6c-1.8 1.7-6.1 5.7-10.5 8.2l-2.5-1.8-2.6-0.1 5 3.7 0.4-0.2c6.1-3.4 11.8-9.3 12.1-9.6l0.8-0.9-13.3-4.4-11.7 3.5c-2.2-1.8-3.9-4.9-4.6-6.3l16.3-5.4 16.8 5.9 0.3-0.5c1.9-2.9 3.6-8.6 3.6-8.8l0.2-0.7-20.9-6.8-19.5 6.2c-0.9-5.4-1-11.6-1-13.4l6.2-2.5v5.4l8.5-2.4v-5.1l6-2.2 6.1 2.3v4.9l7.5 3.1v-6.3l6.8 2.6v6.5z"/>
</svg>
