<svg viewBox="120 0 284 313" xmlns="http://www.w3.org/2000/svg"><defs><linearGradient x1="4.234%" y1="71.381%" x2="100%" y2="71.381%" id="a"><stop stop-color="#878787" offset="0%"/><stop stop-color="#ACACAC" offset="27.284%"/><stop stop-color="#E7E7E7" offset="100%"/></linearGradient><linearGradient x1="0%" y1="50%" x2="98.418%" y2="63.304%" id="b"><stop stop-color="#A4A4A4" offset="0%"/><stop stop-color="#D5D5D5" offset="34.908%"/><stop stop-color="#E2E2E2" offset="64.127%"/><stop stop-color="#F6F6F6" offset="100%"/></linearGradient><linearGradient x1="100%" y1="50%" x2="0%" y2="50%" id="c"><stop stop-color="#999" offset="0%"/><stop stop-color="#636363" offset="100%"/></linearGradient></defs><g fill="none" fill-rule="evenodd"><g transform="translate(4 106)"><ellipse fill="url(#a)" cx="257.723" cy="179.693" rx="116.446" ry="27.876"/><path d="M116.47 168.114h-.024l.01-.157a4.027 4.027 0 0 1 .06-1.015L125.864 7.72h263.717l9.35 159.222a4.07 4.07 0 0 1 .059 1.015l.009.157h-.023c-1.37 12.829-64.087 23.158-141.254 23.158-77.167 0-139.884-10.33-141.254-23.158Z" fill="url(#b)"/><ellipse fill="#EDEDED" cx="257.723" cy="7.72" rx="131.858" ry="7.72"/></g><g opacity=".433" transform="translate(243 250)" fill="url(#c)" fill-rule="nonzero"><path d="M18.499 0C11.957 0 5.416 2.736.437 8.207a1.75 1.75 0 0 0 0 2.313c.29.32.672.48 1.053.48.381 0 .762-.16 1.053-.48 8.795-9.661 23.114-9.663 31.914 0 .582.64 1.524.64 2.106 0a1.75 1.75 0 0 0 0-2.313C31.583 2.736 25.04 0 18.5 0Z"/><path d="M18.998 9c-4.384.001-8.51 1.934-11.61 5.444-.517.586-.517 1.532 0 2.117.258.292.597.439.936.439.339 0 .678-.147.937-.439 2.6-2.943 6.06-4.565 9.74-4.566h.004c3.678 0 7.134 1.62 9.735 4.562.518.585 1.354.585 1.872 0 .517-.586.517-1.532 0-2.117C27.512 10.93 23.389 9 19.003 9h-.005Z"/><path d="M19 17c-2.057 0-4.114.746-5.682 2.237a.997.997 0 0 0 0 1.46c.212.202.49.303.767.303.276 0 .554-.101.768-.303 2.287-2.174 6.008-2.176 8.296 0 .424.404 1.109.404 1.533 0a.997.997 0 0 0 0-1.46C23.115 17.746 21.058 17 19.001 17Z"/></g><path d="M262.322 0C254.407 0 244.86 1.86 237 5.953c0 8.842-.108 30.867 25.322 45.917 25.432-15.05 25.324-37.075 25.324-45.917C279.786 1.86 270.238 0 262.322 0Z" fill="#68BC71"/><path d="M262.297 51.855C236.892 36.805 237 14.792 237 5.953 244.851 1.864 254.387.004 262.297 0v51.855Z" fill="#67B279"/><path d="m261.399 34.61 15.313-20.623c-1.123-.899-2.107-.264-2.649.227l-.02.001-12.767 13.272-4.81-5.785c-2.296-2.649-5.416-.628-6.145-.094L261.4 34.609" fill="#FFF"/></g></svg>