<svg viewBox="120 0 284 313" version="1.1" xmlns="http://www.w3.org/2000/svg">
<defs><linearGradient x1="-1.11022302e-14%" y1="50%" x2="100%" y2="50%" id="linearGradient-1"><stop stop-color="#FFF" offset="0%"></stop> <stop stop-color="#AFAFAF" offset="100%"></stop></linearGradient> <filter x="-1.7%" y="-18.4%" width="103.4%" height="136.8%" filterUnits="objectBoundingBox" id="filter-2"><feGaussianBlur stdDeviation="2" in="SourceGraphic"></feGaussianBlur></filter> <linearGradient x1="4.23356495%" y1="71.3808712%" x2="100%" y2="71.3808712%" id="linearGradient-3"><stop stop-color="#878787" offset="0%"></stop> <stop stop-color="#ACACAC" offset="27.2836243%"></stop> <stop stop-color="#E7E7E7" offset="100%"></stop></linearGradient> <linearGradient x1="-1.11022302e-14%" y1="50%" x2="98.4181113%" y2="63.3039749%" id="linearGradient-4"><stop stop-color="#A4A4A4" offset="0%"></stop> <stop stop-color="#D5D5D5" offset="34.9077066%"></stop> <stop stop-color="#E2E2E2" offset="64.1266956%"></stop> <stop stop-color="#F6F6F6" offset="100%"></stop></linearGradient> <linearGradient x1="50%" y1="0%" x2="50%" y2="100%" id="linearGradient-5"><stop stop-color="#DDF6FF" offset="0%"></stop> <stop stop-color="#66B574" offset="100%"></stop></linearGradient> <filter x="-1.0%" y="-10.4%" width="102.0%" height="120.9%" filterUnits="objectBoundingBox" id="filter-6"><feGaussianBlur stdDeviation="1" in="SourceGraphic"></feGaussianBlur></filter> <linearGradient x1="100%" y1="50%" x2="0%" y2="50%" id="linearGradient-7"><stop stop-color="#999999" offset="0%"></stop> <stop stop-color="#636363" offset="100%"></stop></linearGradient></defs>
<g stroke="none" stroke-width="1" fill="none" fill-rule="evenodd">
<g transform="translate(4, 0)">
<g transform="translate(0, 59)">
<g transform="translate(0, 47)">
<ellipse fill="url(#linearGradient-3)" cx="257.723176" cy="179.693089" rx="116.446352" ry="27.8760163"></ellipse>
<path d="M116.469235,168.113821 L116.446352,168.113821 L116.455558,167.957047 C116.449426,167.866473 116.446352,167.775776 116.446352,167.684959 C116.446352,167.436234 116.46941,167.188408 116.515189,166.941538 L125.864807,7.7195122 L389.581545,7.7195122 L398.931163,166.941538 C398.976942,167.188408 399,167.436234 399,167.684959 C399,167.775776 398.996926,167.866473 398.990794,167.957047 L399,168.113821 L398.977117,168.113821 C397.60707,180.942906 334.89018,191.272358 257.723176,191.272358 C180.556172,191.272358 117.839282,180.942906 116.469235,168.113821 Z" fill="url(#linearGradient-4)"></path>
 <ellipse fill="#EDEDED" cx="257.723176" cy="7.7195122" rx="131.858369" ry="7.7195122"></ellipse></g></g> 
<g opacity="0.43312872" transform="translate(239, 250)" fill="url(#linearGradient-7)" fill-rule="nonzero"><path d="M18.4987789,0 C11.9572877,0 5.41627296,2.73569054 0.436815806,8.20680991 C-0.145605269,8.84655448 -0.145605269,9.88049936 0.436815806,10.5201916 C0.727263887,10.8392264 1.10863485,10.9996074 1.4899105,10.9996074 C1.8712338,10.9996074 2.2524618,10.840849 2.54290988,10.5201916 C11.3384117,0.859012275 25.6570017,0.857337277 34.4569829,10.5201916 C35.039404,11.1599361 35.9808465,11.1599361 36.5632199,10.5201916 C37.1455934,9.88049936 37.1455934,8.84655448 36.5632199,8.20680991 C31.5822855,2.73569054 25.0403178,0 18.4987789,0 Z"></path>
<path d="M18.9978615,9 C14.6139291,9.00143707 10.488189,10.9344455 7.3881459,14.4440679 C6.87061803,15.0295319 6.87061803,15.9758452 7.3881459,16.5612613 C7.64629579,16.8532268 7.98511753,17 8.32393926,17 C8.66280335,17 9.00166743,16.8532268 9.26117244,16.5612613 C11.8607537,13.6176545 15.3207076,11.99606 19.0017574,11.9945271 L19.0047217,11.9945271 C22.6831036,11.9945271 26.1392886,13.6146366 28.7402674,16.5567584 C29.2577952,17.1422224 30.0943262,17.1422224 30.6118541,16.5567584 C31.129382,15.9713423 31.129382,15.025029 30.6118541,14.4396129 C27.5118957,10.9314276 23.3886964,9 19.0034513,9 L18.9978615,9 Z"></path>
<path d="M19.0008587,17 C16.9433639,17 14.8856263,17.7456965 13.3180542,19.2371879 C12.8939819,19.6408894 12.8939819,20.2934977 13.3180542,20.6971991 C13.5295179,20.8985378 13.8071442,20.9996862 14.0848052,20.9996862 C14.3613213,20.9996862 14.6389129,20.8985378 14.8525276,20.6971991 C17.1396661,18.522708 20.8614962,18.5206269 23.1485652,20.6971991 C23.5726722,21.1009336 24.2579256,21.1009336 24.6819978,20.6971991 C25.1060007,20.2934977 25.1060007,19.6408894 24.6819978,19.2371879 C23.1154666,17.7456965 21.0583188,17 19.0008587,17 Z"></path></g>
<g transform="translate(233, 0)">
<g>
<g>
<path d="M25.3223802,0 C17.4073821,0 7.85991568,1.85982979 7.7655876e-06,5.95344681 C7.7655876e-06,14.7945532 -0.108486171,36.8204255 25.3223802,51.87 C50.7538088,36.8204255 50.645877,14.7945532 50.645877,5.95344681 C42.7854069,1.85982979 33.2379405,0 25.3223802,0 L25.3223802,0 Z" fill="#68BC71"></path>
<path d="M25.2965138,51.854685 C-0.108412591,36.8054866 7.76558755e-06,14.7915547 7.76558755e-06,5.95344681 C7.85135547,1.86428814 17.3865879,0.00405372237 25.2965138,6.61850441e-06 L25.2965138,51.8546902 Z" fill="#67B279"></path>
</g><path d="M24.3987198,34.6093529 L39.7115833,13.9871408 C38.5894878,13.0884472 37.6052497,13.7227265 37.0634379,14.2137816 L37.0436676,14.2153555 L24.2758237,27.4869566 L19.4652399,21.7023705 C17.1702874,19.0529818 14.0503275,21.0738621 13.3214998,21.6079369 L24.3987198,34.6093529" fill="#FFF"></path></g></g></g></g></svg>