<svg version="1.1" viewBox="0 0 256 256" xmlns="http://www.w3.org/2000/svg" xmlns:xlink="http://www.w3.org/1999/xlink">
<defs>
<linearGradient id="b" x1="203.72" x2="203.72" y1="7.7039" y2="402.03" gradientTransform="matrix(1 0 0 -1 0 407.21)" gradientUnits="userSpaceOnUse" xlink:href="#a"/>
<filter id="c" x="-.013202" y="-.013198" width="1.0264" height="1.0264" color-interpolation-filters="sRGB">
<feGaussianBlur stdDeviation="2.168925"/>
</filter>
</defs>
<g transform="matrix(10.034 0 0 9.8543 1.1883 .34878)">
<path d="m12.651 0c-3.9544 0-8.7244 0.92991-12.651 2.9767 0 4.4206-0.054205 15.433 12.651 22.958 12.706-7.5248 12.652-18.538 12.652-22.958-3.9272-2.0468-8.6972-2.9767-12.652-2.9767z" fill="#68bc71"/>
<path d="m12.638 25.927c-12.693-7.5246-12.638-18.532-12.638-22.951 3.9226-2.0446 8.6865-2.9747 12.638-2.9767v25.927z" fill="#67b279"/>
<path d="m12.19 17.305 7.6504-10.311c-0.56061-0.44935-1.0523-0.13221-1.323 0.11332l-0.0099 7.869e-4 -6.3789 6.6358-2.4034-2.8923c-1.1466-1.3247-2.7053-0.31425-3.0694-0.047217l5.5343 6.5007" fill="#fff"/>
</g>
<path d="m12.718 172.52 35.682-4.8445 0.0155 34.312-35.665 0.20245zm35.665 33.421 0.02759 34.342-35.665-4.8883-2e-3 -29.684zm4.3255-38.899 47.311-6.8837v41.393l-47.311 0.37443zm47.322 39.222-0.011 41.207-47.311-6.6569-0.06627-34.627z" fill="#00adef" stroke-width=".99832"/>
<g transform="matrix(.2092 0 0 .21192 149.39 159.94)">
<g transform="matrix(1 0 0 .98477 0 6.083)" fill="#4d4d4d" filter="url(#c)">
<path class="st0" d="m400.9 202.3c0-110-87.1-197.2-197.2-197.2-110 0.1-197.1 87.2-197.1 197.2s87.1 197.2 197.2 197.2 197.1-87.1 197.1-197.2z"/>
</g>
<g fill="url(#b)">
<linearGradient id="a" x1="203.72" x2="203.72" y1="7.7039" y2="402.03" gradientTransform="matrix(1 0 0 -1 0 407.21)" gradientUnits="userSpaceOnUse">
<stop stop-color="#F2F2F2" offset="0"/>
<stop stop-color="#F7F7F7" offset=".5963"/>
<stop stop-color="#FEFEFE" offset="1"/>
</linearGradient>
<path class="st0" d="m400.9 202.3c0-110-87.1-197.2-197.2-197.2-110 0.1-197.1 87.2-197.1 197.2s87.1 197.2 197.2 197.2 197.1-87.1 197.1-197.2z"/>
</g>
<g fill="#515151">
<path class="st1" d="m223.7 137.8h0.2v6.9h7.9v-28.5c0-2.1-0.4-3.9-1.2-5.6s-1.9-3.1-3.4-4.3-3.2-2.1-5.3-2.7-4.3-1-6.9-1c-2.3 0-4.5 0.3-6.5 1-2 0.6-3.7 1.5-5.2 2.7s-2.6 2.5-3.5 4.1-1.3 3.3-1.4 5.1h7.8c0.2-0.9 0.5-1.7 1-2.4s1.1-1.4 1.8-1.9 1.6-0.9 2.6-1.2 2-0.4 3.1-0.4c2.8 0 4.9 0.6 6.5 1.9 1.5 1.2 2.3 3.1 2.3 5.5v3.2l-11.2 0.6c-5.2 0.3-9.1 1.5-11.8 3.6s-4.1 4.9-4.1 8.6c0 1.9 0.3 3.6 1 5.1s1.7 2.8 2.9 3.9 2.7 1.9 4.4 2.5 3.6 0.9 5.7 0.9c1.4 0 2.8-0.2 4.1-0.5s2.6-0.8 3.7-1.5c1.1-0.6 2.1-1.4 3.1-2.3 1-1.2 1.8-2.2 2.4-3.3zm-3.2-2c-1 0.8-2.1 1.5-3.4 2s-2.8 0.7-4.3 0.7c-2.4 0-4.3-0.5-5.7-1.6s-2.1-2.5-2.1-4.3 0.7-3.3 2.2-4.3c1.4-1 3.6-1.6 6.5-1.8l10.1-0.7v3.2c0 1.4-0.3 2.6-0.8 3.8-0.8 1.2-1.5 2.2-2.5 3z"/>
<path class="st1" d="m278.5 228.7-13.7-3.4c-16.7-4.2-23.6-9.7-23.6-18.9 0-11.7 10.9-19.8 26.7-19.8s26.5 8 27.7 21h17.9c-0.7-21.6-19-36.7-45.2-36.7-26.8 0-45.7 15-45.7 36.5 0 17.5 10.6 28.2 34.1 34l16.3 4c16.7 4.2 23.9 10.4 23.9 20.6 0 11.8-11.9 20.4-28.4 20.4-17.2 0-29.8-8.6-31.2-21.7h-18c1.3 22.8 20.2 37.3 47.9 37.3 29.7 0 48.4-14.7 48.4-38.3-0.3-18.4-11-28.7-37.1-35z"/>
<path class="st1" d="m187.7 144.7v-28.3c0-2.1-0.3-4-1-5.6s-1.5-3.1-2.7-4.3-2.6-2.1-4.3-2.8-3.5-1-5.6-1c-1.5 0-2.9 0.2-4.2 0.6s-2.6 0.9-3.7 1.6-2.1 1.6-3 2.5-1.6 2.1-2.1 3.4h-0.2c-0.8-2.6-2.3-4.6-4.3-6s-4.5-2.1-7.4-2.1c-1.3 0-2.6 0.2-3.9 0.5-1.2 0.3-2.3 0.8-3.4 1.5-1 0.7-1.9 1.4-2.7 2.4-0.8 0.9-1.4 2-1.9 3.1h-0.2v-7h-7.9v41.6h7.8v-25.5c0-1.3 0.7-2.6 1.1-3.7s1-2.1 1.8-3c0.8-0.8 1.7-1.5 2.8-2s2.3-0.7 3.5-0.7 2.3 0.2 3.3 0.6 1.8 0.9 2.5 1.6 1.2 1.5 1.6 2.5 0.6 2.1 0.6 3.2v27h8.2v-25.8c0-1.3 0.2-2.6 0.7-3.7 0.4-1.1 1-2.1 1.8-2.9s1.7-1.4 2.7-1.9c1.1-0.4 2.2-0.7 3.5-0.7 2.6 0 4.6 0.8 6 2.2 1.4 1.5 2.1 3.6 2.1 6.3v26.3z"/>
<path class="st1" d="m147.4 170.9c-36.3 0-59.1 25.3-59.1 65.6s22.8 65.6 59.1 65.6 59.1-25.3 59.1-65.6c-0.1-40.3-22.8-65.6-59.1-65.6zm0 115c-24.9 0-40.5-19.1-40.5-49.4 0-30.4 15.6-49.5 40.5-49.5 24.8 0 40.5 19.1 40.5 49.5-0.1 30.3-15.7 49.4-40.5 49.4z"/>
<path class="st1" d="m252.1 113.5c1-1.2 2.1-2.2 3.5-2.9s2.9-1 4.6-1c1.4 0 2.7 0.2 3.8 0.6s2.1 0.9 3 1.6c0.8 0.7 1.5 1.5 2 2.5s0.9 2 1.1 3.1h7.9c-0.2-2-0.7-3.9-1.6-5.7s-2.1-3.3-3.6-4.7c-1.5-1.3-3.4-2.4-5.5-3.2s-4.5-1.2-7.2-1.2c-2.9 0-5.6 0.5-8 1.5s-4.4 2.4-6.1 4.3-3 4.1-3.9 6.7-1.4 5.5-1.4 8.8 0.5 6.3 1.4 8.9 2.3 4.9 4 6.7 3.8 3.2 6.2 4.2 5.1 1.5 8 1.5c2.5 0 4.8-0.4 6.9-1s3.9-1.7 5.5-2.9c1.5-1.3 2.8-2.8 3.8-4.6s1.6-3.8 1.8-5.9h-7.9c-0.5 2.5-1.6 4.3-3.3 5.6s-3.9 1.9-6.6 1.9c-1.7 0-3.2-0.3-4.6-1-1.4-0.6-2.6-1.6-3.5-2.8-1-1.2-1.7-2.7-2.3-4.5-0.5-1.8-0.8-3.8-0.8-6s0.3-4.1 0.8-5.9c0.3-1.9 1-3.4 2-4.6z"/>
</g>
</g>
<style type="text/css">.st0{fill:url(#a);}
	.st1{fill:#515151;}</style>
</svg>
