<svg viewBox="0 0 256 256" xmlns="http://www.w3.org/2000/svg" xmlns:xlink="http://www.w3.org/1999/xlink"><defs><linearGradient id="b" x1="203.72" x2="203.72" y1="7.704" y2="402.03" gradientTransform="matrix(1 0 0 -1 0 407.21)" gradientUnits="userSpaceOnUse" xlink:href="#a"/><filter id="c" x="-.013" y="-.013" width="1.026" height="1.026" color-interpolation-filters="sRGB"><feGaussianBlur stdDeviation="2.169"/></filter></defs><path d="M128.128.349c-39.678 0-87.54 9.163-126.94 29.333 0 43.562-.544 152.081 126.94 226.235 127.492-74.152 126.95-182.679 126.95-226.235C215.674 9.512 167.812.35 128.129.35z" fill="#68bc71"/><path d="M127.998 255.841C.636 181.691 1.188 73.221 1.188 29.675 40.548 9.527 88.348.362 127.998.342v255.492z" fill="#67b279"/><path d="M123.503 170.877 200.267 69.27c-5.625-4.428-10.559-1.303-13.275 1.116l-.1.008-64.005 65.391-24.116-28.501c-11.505-13.054-27.145-3.097-30.798-.466l55.53 64.06" fill="#fff"/><path d="m12.718 172.52 35.682-4.845.016 34.312-35.665.203zm35.665 33.421.028 34.342-35.665-4.888-.002-29.684zm4.325-38.899 47.311-6.884v41.393l-47.31.375zm47.322 39.222-.01 41.207-47.312-6.657-.066-34.627z" fill="#00adef" stroke-width=".998"/><g><g transform="matrix(.2092 0 0 .2087 149.39 161.23)" fill="#4d4d4d" filter="url(#c)"><path class="st0" d="M400.9 202.3c0-110-87.1-197.2-197.2-197.2C93.7 5.2 6.6 92.3 6.6 202.3s87.1 197.2 197.2 197.2 197.1-87.1 197.1-197.2z"/></g><g fill="url(#b)" transform="matrix(.2092 0 0 .21192 149.39 159.94)"><linearGradient id="a" x1="203.72" x2="203.72" y1="7.704" y2="402.03" gradientTransform="matrix(1 0 0 -1 0 407.21)" gradientUnits="userSpaceOnUse"><stop stop-color="#F2F2F2" offset="0"/><stop stop-color="#F7F7F7" offset=".596"/><stop stop-color="#FEFEFE" offset="1"/></linearGradient><path class="st0" d="M400.9 202.3c0-110-87.1-197.2-197.2-197.2C93.7 5.2 6.6 92.3 6.6 202.3s87.1 197.2 197.2 197.2 197.1-87.1 197.1-197.2z"/></g><g fill="#515151"><path class="st1" d="M196.188 189.143h.042v1.462h1.653v-6.04c0-.445-.084-.826-.251-1.187s-.398-.657-.712-.91-.67-.446-1.109-.573-.9-.212-1.443-.212c-.481 0-.941.064-1.36.212-.418.127-.774.318-1.088.572s-.544.53-.732.869-.272.7-.293 1.08h1.632c.042-.19.105-.36.21-.508s.23-.297.376-.402.335-.191.544-.255.418-.085.648-.085c.586 0 1.025.128 1.36.403.314.254.481.657.481 1.166v.678l-2.343.127c-1.088.064-1.904.318-2.468.763s-.858 1.038-.858 1.822c0 .403.063.763.21 1.081s.355.594.606.827.565.402.92.53.753.19 1.193.19c.293 0 .585-.042.857-.106s.544-.17.774-.318c.23-.127.44-.296.649-.487.21-.254.377-.466.502-.7zm-.67-.424c-.209.17-.439.318-.71.424s-.586.148-.9.148c-.502 0-.9-.106-1.193-.34s-.439-.529-.439-.91.146-.7.46-.912c.293-.212.753-.339 1.36-.381l2.113-.148v.678c0 .296-.063.55-.167.805-.168.254-.314.466-.523.636zM207.652 208.406l-2.866-.72c-3.493-.89-4.937-2.056-4.937-4.006 0-2.48 2.28-4.196 5.586-4.196s5.543 1.696 5.795 4.45h3.744c-.146-4.577-3.975-7.777-9.456-7.777-5.606 0-9.56 3.179-9.56 7.735 0 3.709 2.217 5.976 7.134 7.205l3.41.848c3.493.89 5 2.204 5 4.366 0 2.5-2.49 4.323-5.942 4.323-3.598 0-6.234-1.823-6.527-4.599h-3.765c.272 4.832 4.225 7.905 10.02 7.905 6.213 0 10.126-3.115 10.126-8.117-.063-3.899-2.302-6.082-7.762-7.417zM188.657 190.605v-5.998c0-.445-.063-.847-.21-1.186s-.313-.657-.564-.912-.544-.445-.9-.593-.732-.212-1.171-.212c-.314 0-.607.043-.879.127s-.544.191-.774.34-.44.338-.628.53-.334.444-.439.72h-.042c-.167-.551-.48-.975-.9-1.272s-.94-.445-1.547-.445a3.59 3.59 0 0 0-.816.106 2.37 2.37 0 0 0-.712.318 2.612 2.612 0 0 0-.962 1.166h-.042v-1.484h-1.652v8.816h1.631v-5.404c0-.275.147-.55.23-.784s.21-.445.377-.636c.167-.17.356-.318.586-.424s.481-.148.732-.148.481.042.69.127.377.19.523.34.251.317.335.529.126.445.126.678v5.722h1.715v-5.468c0-.275.042-.55.147-.784.083-.233.209-.445.376-.614s.356-.297.565-.403c.23-.085.46-.148.732-.148.544 0 .962.17 1.255.466.293.318.44.763.44 1.335v5.574zM180.226 196.157c-7.594 0-12.364 5.362-12.364 13.902s4.77 13.902 12.364 13.902 12.364-5.362 12.364-13.902c-.021-8.54-4.77-13.902-12.364-13.902zm0 24.37c-5.209 0-8.473-4.047-8.473-10.468 0-6.442 3.264-10.49 8.473-10.49 5.188 0 8.473 4.048 8.473 10.49-.021 6.421-3.285 10.469-8.473 10.469zM202.13 183.993c.209-.254.439-.466.732-.615s.606-.212.962-.212a2.259 2.259 0 0 1 1.423.466c.167.149.313.319.418.53s.188.424.23.657h1.653c-.042-.423-.147-.826-.335-1.208s-.44-.699-.753-.996c-.314-.275-.712-.508-1.15-.678s-.942-.254-1.507-.254c-.607 0-1.172.106-1.674.318s-.92.508-1.276.911-.627.869-.816 1.42-.293 1.166-.293 1.865.105 1.335.293 1.886.481 1.038.837 1.42.795.678 1.297.89 1.067.318 1.674.318c.523 0 1.004-.085 1.443-.212s.816-.36 1.15-.615c.315-.275.587-.593.796-.975s.335-.805.376-1.25h-1.652c-.105.53-.335.911-.69 1.187s-.817.403-1.381.403c-.356 0-.67-.064-.963-.212a1.83 1.83 0 0 1-.732-.594c-.21-.254-.356-.572-.481-.953-.105-.382-.167-.806-.167-1.272s.062-.869.167-1.25c.063-.403.21-.72.418-.975z"/></g></g><style>.st0{fill:url(#a)}.st1{fill:#515151}</style></svg>