<?xml version="1.0" encoding="UTF-8" standalone="no"?>
<svg
   xmlns:dc="http://purl.org/dc/elements/1.1/"
   xmlns:cc="http://creativecommons.org/ns#"
   xmlns:rdf="http://www.w3.org/1999/02/22-rdf-syntax-ns#"
   xmlns:svg="http://www.w3.org/2000/svg"
   xmlns="http://www.w3.org/2000/svg"
   xmlns:sodipodi="http://sodipodi.sourceforge.net/DTD/sodipodi-0.dtd"
   xmlns:inkscape="http://www.inkscape.org/namespaces/inkscape"
   sodipodi:docname="45-AdGuard-for-Android.svg"
   inkscape:version="1.0 (4035a4fb49, 2020-05-01)"
   id="svg8"
   version="1.1"
   viewBox="0 0 256 256"
   height="256mm"
   width="256mm">
  <defs
     id="defs2" />
  <sodipodi:namedview
     inkscape:window-maximized="1"
     inkscape:window-y="32"
     inkscape:window-x="-8"
     inkscape:window-height="2497"
     inkscape:window-width="1440"
     inkscape:snap-nodes="false"
     showgrid="false"
     inkscape:document-rotation="0"
     inkscape:current-layer="layer1"
     inkscape:document-units="mm"
     inkscape:cy="560"
     inkscape:cx="671.12676"
     inkscape:zoom="0.71"
     inkscape:pageshadow="2"
     inkscape:pageopacity="0.0"
     borderopacity="1.0"
     bordercolor="#666666"
     pagecolor="#ffffff"
     id="base" />
  <metadata
     id="metadata5">
    <rdf:RDF>
      <cc:Work
         rdf:about="">
        <dc:format>image/svg+xml</dc:format>
        <dc:type
           rdf:resource="http://purl.org/dc/dcmitype/StillImage" />
        <dc:title></dc:title>
      </cc:Work>
    </rdf:RDF>
  </metadata>
  <g
     id="layer1"
     inkscape:groupmode="layer"
     inkscape:label="Lag 1">
    <g
       transform="matrix(9.8160415,0,0,9.8160415,4.3234756,1.2223832)"
       id="g864">
      <path
         fill="#68bc71"
         d="M 12.651299,0 C 8.6968913,0 3.9268876,0.92991489 3.8797604e-6,2.9767234 3.8797604e-6,7.3972766 -0.05420071,18.410213 12.651299,25.935 25.357079,18.410213 25.303155,7.3972766 25.303155,2.9767234 21.37599,0.92991489 16.605987,0 12.651299,0 Z"
         id="path847" />
      <path
         fill="#67b279"
         d="M 12.638375,25.927343 C -0.05416395,18.402743 3.8797604e-6,7.3957773 3.8797604e-6,2.9767234 3.9226108,0.93214407 8.6865023,0.00202686 12.638375,3.3092522e-6 V 25.927345 Z"
         id="path849" />
      <path
         fill="#ffffff"
         d="M 12.189829,17.304676 19.840279,6.9935704 C 19.27967,6.5442236 18.787935,6.8613633 18.517241,7.1068908 l -0.0099,7.869e-4 -6.378935,6.6358003 -2.4034127,-2.892293 C 8.5784365,9.5264909 7.0196754,10.536931 6.6555462,10.803968 l 5.5342828,6.500708"
         id="path851" />
    </g>
    <g
       inkscape:label="Layer 1"
       id="layer1-4"
       transform="matrix(0.35,0,0,0.35,126.80569,73.532269)">
      <g
         id="g80302"
         transform="matrix(1.3212521,0,0,1.3212521,480.52565,-75.040147)"
         style="fill:#000000">
        <path
           inkscape:connector-curvature="0"
           id="path825"
           d="m -299.03612,399.58105 c -6.88566,0 -13.96596,5.51768 -13.96596,15.17562 0,8.82926 6.22524,15.06562 13.96596,15.06562 6.38958,0 9.23732,-4.28876 9.23732,-4.28876 v 1.86946 c 0,0.8836 0.83542,1.86946 1.86946,1.86946 h 4.61866 v -29.03158 h -6.48812 v 3.68394 c 0,0 -2.8716,-4.34376 -9.23732,-4.34376 z m 1.15574,5.93636 c 5.66836,0 8.64172,4.9851 8.64172,9.2371 0,4.73604 -3.5303,9.23388 -8.6297,9.2339 -4.26278,0 -8.53284,-3.45238 -8.53284,-9.2964 0,-5.27526 3.67466,-9.1746 8.52082,-9.1746 z"
           style="opacity:1;fill:#000000;fill-opacity:1;stroke:none;stroke-width:0.0109968;stroke-linecap:square;stroke-linejoin:round;stroke-miterlimit:2.6131;stroke-dasharray:none;stroke-opacity:1" />
        <path
           sodipodi:nodetypes="ccccccccccccccc"
           inkscape:connector-curvature="0"
           id="path829"
           d="m -274.2933,429.27247 c -0.99682,0 -1.86946,-0.71498 -1.86946,-1.86946 v -27.16212 h 6.48812 v 3.59262 c 1.47022,-2.20986 4.34254,-4.26128 8.75132,-4.26128 7.2059,0 11.04296,5.74422 11.04296,11.11564 v 18.5846 h -4.5087 c -1.18224,0 -1.97942,-0.9897 -1.97942,-1.97942 v -15.1756 c 0,-2.97738 -1.82422,-6.59332 -6.04314,-6.59332 -4.55234,0 -7.26302,4.30228 -7.26302,8.3528 v 15.39554 z"
           style="opacity:1;fill:#000000;fill-opacity:1;stroke:none;stroke-width:0.0109968;stroke-linecap:square;stroke-linejoin:round;stroke-miterlimit:2.6131;stroke-dasharray:none;stroke-opacity:1" />
        <path
           sodipodi:nodetypes="ssscssccccssscss"
           inkscape:connector-curvature="0"
           style="opacity:1;fill:#000000;fill-opacity:1;stroke:none;stroke-width:0.0109968;stroke-linecap:square;stroke-linejoin:round;stroke-miterlimit:2.6131;stroke-dasharray:none;stroke-opacity:1"
           d="m -230.96586,399.58105 c -6.88564,0 -13.96594,5.51768 -13.96594,15.17562 0,8.82926 6.22524,15.06562 13.96594,15.06562 6.38958,0 9.23734,-4.28876 9.23734,-4.28876 v 1.86946 c 0,0.8836 0.83542,1.86946 1.86946,1.86946 h 4.61866 v -43.54736 h -6.48812 v 18.1997 c 0,0 -2.87162,-4.34374 -9.23734,-4.34374 z m 1.15576,5.93636 c 5.66836,0 8.64172,4.9851 8.64172,9.2371 0,4.73604 -3.53032,9.23388 -8.6297,9.2339 -4.26278,0 -8.53284,-3.45238 -8.53284,-9.2964 0,-5.27528 3.67464,-9.1746 8.52082,-9.1746 z"
           id="path833" />
        <path
           style="opacity:1;fill:#000000;fill-opacity:1;stroke:none;stroke-width:0.0109968;stroke-linecap:square;stroke-linejoin:round;stroke-miterlimit:2.6131;stroke-dasharray:none;stroke-opacity:1"
           d="m -206.22302,429.27247 c -0.99682,0 -1.86946,-0.71498 -1.86946,-1.86946 v -27.16212 h 6.48812 v 4.8386 c 1.11676,-2.7106 3.52662,-5.1685 7.80774,-5.1685 1.19346,0 2.30934,0.21994 2.30934,0.21994 v 6.70804 c 0,0 -1.39338,-0.54984 -3.07912,-0.54984 -4.55234,0 -7.03796,4.30228 -7.03796,8.35282 v 14.63052 z"
           id="path835"
           inkscape:connector-curvature="0"
           sodipodi:nodetypes="cccccccccccc" />
        <path
           sodipodi:nodetypes="cccccc"
           inkscape:connector-curvature="0"
           id="path837"
           d="m -152.1187,429.27247 c -0.99682,0 -1.86946,-0.71498 -1.86946,-1.86946 v -27.16212 h 6.48812 v 29.03158 z"
           style="opacity:1;fill:#000000;fill-opacity:1;stroke:none;stroke-width:0.0109968;stroke-linecap:square;stroke-linejoin:round;stroke-miterlimit:2.6131;stroke-dasharray:none;stroke-opacity:1" />
        <path
           id="path839"
           d="m -128.47554,399.58105 c -6.88566,0 -13.96596,5.51768 -13.96596,15.17562 0,8.82926 6.22524,15.06562 13.96596,15.06562 6.38956,0 9.23731,-4.28876 9.23731,-4.28876 v 1.86946 c 0,0.8836 0.83542,1.86946 1.86946,1.86946 h 4.61866 v -43.54736 h -6.48812 v 18.1997 c 0,0 -2.87159,-4.34374 -9.23731,-4.34374 z m 1.15574,5.93636 c 5.66836,0 8.64171,4.9851 8.64171,9.2371 0,4.73604 -3.53029,9.23388 -8.62969,9.2339 -4.26278,0 -8.53284,-3.45238 -8.53284,-9.2964 0,-5.27528 3.67466,-9.1746 8.52082,-9.1746 z"
           style="opacity:1;fill:#000000;fill-opacity:1;stroke:none;stroke-width:0.0109968;stroke-linecap:square;stroke-linejoin:round;stroke-miterlimit:2.6131;stroke-dasharray:none;stroke-opacity:1"
           inkscape:connector-curvature="0"
           sodipodi:nodetypes="ssscssccccssscss" />
        <circle
           r="4.2912617"
           cy="389.68787"
           cx="-150.79517"
           id="path841"
           style="opacity:1;fill:#000000;fill-opacity:1;stroke:none;stroke-width:0.0138428;stroke-linecap:square;stroke-linejoin:round;stroke-miterlimit:2.6131;stroke-dasharray:none;stroke-opacity:1" />
        <path
           inkscape:connector-curvature="0"
           id="path843"
           d="m -174.3765,399.57139 c -7.21114,0 -15.13372,5.38276 -15.13372,15.13372 0,8.88566 6.74818,15.11826 15.11804,15.11826 10.315,0 15.35172,-8.29218 15.35172,-15.06198 0,-8.30724 -6.48568,-15.19 -15.33604,-15.19 z m 0.0236,6.059 c 4.9867,0 8.70638,4.01914 8.70638,9.09298 0,5.16184 -3.94862,9.14498 -8.69156,9.14498 -4.40284,0 -8.68276,-3.583 -8.68276,-9.0582 0,-5.56646 4.07064,-9.17976 8.66794,-9.17976 z"
           style="opacity:1;fill:#000000;fill-opacity:1;stroke:none;stroke-width:0.0109968;stroke-linecap:square;stroke-linejoin:round;stroke-miterlimit:2.6131;stroke-dasharray:none;stroke-opacity:1" />
      </g>
      <path
         id="path80319"
         d="m 263.83714,306.59003 21.93313,-37.99441 c 1.2377,-2.12998 0.48933,-4.83565 -1.61189,-6.07335 -2.1012,-1.23768 -4.83565,-0.5181 -6.04456,1.61189 l -22.22097,38.48374 c -16.95357,-7.74281 -36.03711,-12.06035 -56.55987,-12.06035 -20.52274,0 -39.60629,4.31754 -56.55986,12.06035 l -22.22097,-38.48374 c -1.2377,-2.12999 -3.94336,-2.84957 -6.07335,-1.61189 -2.13,1.2377 -2.84959,3.94337 -1.61189,6.07335 l 21.93314,37.99441 C 96.978343,327.084 71.360891,365.36624 67.129701,410.18238 H 331.53627 C 327.30507,365.36624 301.68761,327.084 263.83714,306.59003 Z m -125.20887,66.46144 c -6.13092,0 -11.0817,-4.97957 -11.0817,-11.08169 0,-6.13093 4.97957,-11.0817 11.0817,-11.0817 6.13092,0 11.08171,4.97956 11.08171,11.0817 0.0289,6.10212 -4.95079,11.08169 -11.08171,11.08169 z m 121.38064,0 c -6.13091,0 -11.08172,-4.97957 -11.08172,-11.08169 0,-6.13093 4.97958,-11.0817 11.08172,-11.0817 6.13093,0 11.0817,4.97956 11.0817,11.0817 0.0288,6.10212 -4.95077,11.08169 -11.0817,11.08169 z"
         class="st0"
         inkscape:connector-curvature="0"
         style="fill:#34de19;stroke-width:0.287836;fill-opacity:1" />
    </g>
    <path
       d="m 179.12666,200.00111 a 3.8010564,3.8010564 0 0 1 -3.78757,3.80104 3.8010564,3.8010564 0 0 1 -3.81444,-3.77407 3.8010564,3.8010564 0 0 1 3.76051,-3.82781 3.8010564,3.8010564 0 0 1 3.84112,3.74691 l -3.80067,0.0539 z"
       sodipodi:arc-type="slice"
       sodipodi:end="6.2689958"
       sodipodi:start="0"
       sodipodi:ry="3.8010564"
       sodipodi:rx="3.8010564"
       sodipodi:cy="200.00111"
       sodipodi:cx="175.32561"
       sodipodi:type="arc"
       id="path929"
       style="fill:#ffffff;fill-opacity:1;stroke-width:0.264583" />
  </g>
  <style
     id="style80315"
     type="text/css">
	.st0{fill:#32de84;}
</style>
</svg>
