<svg version="1.1" viewBox="0 0 256 256" xmlns="http://www.w3.org/2000/svg">
<g transform="matrix(9.816 0 0 9.816 4.3235 1.2224)">
<path d="m12.651 0c-3.9544 0-8.7244 0.92991-12.651 2.9767 0 4.4206-0.054205 15.433 12.651 22.958 12.706-7.5248 12.652-18.538 12.652-22.958-3.9272-2.0468-8.6972-2.9767-12.652-2.9767z" fill="#68bc71"/>
<path d="m12.638 25.927c-12.693-7.5246-12.638-18.532-12.638-22.951 3.9226-2.0446 8.6865-2.9747 12.638-2.9767v25.927z" fill="#67b279"/>
<path d="m12.19 17.305 7.6504-10.311c-0.56061-0.44935-1.0523-0.13221-1.323 0.11332l-0.0099 7.869e-4 -6.3789 6.6358-2.4034-2.8923c-1.1466-1.3247-2.7053-0.31425-3.0694-0.047217l5.5343 6.5007" fill="#fff"/>
</g>
<g transform="matrix(.35 0 0 .35 126.81 73.532)">
<g transform="matrix(1.3213 0 0 1.3213 480.53 -75.04)">
<path d="m-299.04 399.58c-6.8857 0-13.966 5.5177-13.966 15.176 0 8.8293 6.2252 15.066 13.966 15.066 6.3896 0 9.2373-4.2888 9.2373-4.2888v1.8695c0 0.8836 0.83542 1.8695 1.8695 1.8695h4.6187v-29.032h-6.4881v3.6839s-2.8716-4.3438-9.2373-4.3438zm1.1557 5.9364c5.6684 0 8.6417 4.9851 8.6417 9.2371 0 4.736-3.5303 9.2339-8.6297 9.2339-4.2628 0-8.5328-3.4524-8.5328-9.2964 0-5.2753 3.6747-9.1746 8.5208-9.1746z"/>
<path d="m-274.29 429.27c-0.99682 0-1.8695-0.71498-1.8695-1.8695v-27.162h6.4881v3.5926c1.4702-2.2099 4.3425-4.2613 8.7513-4.2613 7.2059 0 11.043 5.7442 11.043 11.116v18.585h-4.5087c-1.1822 0-1.9794-0.9897-1.9794-1.9794v-15.176c0-2.9774-1.8242-6.5933-6.0431-6.5933-4.5523 0-7.263 4.3023-7.263 8.3528v15.396z"/>
<path d="m-230.97 399.58c-6.8856 0-13.966 5.5177-13.966 15.176 0 8.8293 6.2252 15.066 13.966 15.066 6.3896 0 9.2373-4.2888 9.2373-4.2888v1.8695c0 0.8836 0.83542 1.8695 1.8695 1.8695h4.6187v-43.547h-6.4881v18.2s-2.8716-4.3437-9.2373-4.3437zm1.1558 5.9364c5.6684 0 8.6417 4.9851 8.6417 9.2371 0 4.736-3.5303 9.2339-8.6297 9.2339-4.2628 0-8.5328-3.4524-8.5328-9.2964 0-5.2753 3.6746-9.1746 8.5208-9.1746z"/>
<path d="m-206.22 429.27c-0.99682 0-1.8695-0.71498-1.8695-1.8695v-27.162h6.4881v4.8386c1.1168-2.7106 3.5266-5.1685 7.8077-5.1685 1.1935 0 2.3093 0.21994 2.3093 0.21994v6.708s-1.3934-0.54984-3.0791-0.54984c-4.5523 0-7.038 4.3023-7.038 8.3528v14.631z"/>
<path d="m-152.12 429.27c-0.99682 0-1.8695-0.71498-1.8695-1.8695v-27.162h6.4881v29.032z"/>
<path d="m-128.48 399.58c-6.8857 0-13.966 5.5177-13.966 15.176 0 8.8293 6.2252 15.066 13.966 15.066 6.3896 0 9.2373-4.2888 9.2373-4.2888v1.8695c0 0.8836 0.83542 1.8695 1.8695 1.8695h4.6187v-43.547h-6.4881v18.2s-2.8716-4.3437-9.2373-4.3437zm1.1557 5.9364c5.6684 0 8.6417 4.9851 8.6417 9.2371 0 4.736-3.5303 9.2339-8.6297 9.2339-4.2628 0-8.5328-3.4524-8.5328-9.2964 0-5.2753 3.6747-9.1746 8.5208-9.1746z"/>
<circle cx="-150.8" cy="389.69" r="4.2913"/>
<path d="m-174.38 399.57c-7.2111 0-15.134 5.3828-15.134 15.134 0 8.8857 6.7482 15.118 15.118 15.118 10.315 0 15.352-8.2922 15.352-15.062 0-8.3072-6.4857-15.19-15.336-15.19zm0.0236 6.059c4.9867 0 8.7064 4.0191 8.7064 9.093 0 5.1618-3.9486 9.145-8.6916 9.145-4.4028 0-8.6828-3.583-8.6828-9.0582 0-5.5665 4.0706-9.1798 8.6679-9.1798z"/>
</g>
<path class="st0" d="m263.84 306.59 21.933-37.994c1.2377-2.13 0.48933-4.8356-1.6119-6.0734-2.1012-1.2377-4.8356-0.5181-6.0446 1.6119l-22.221 38.484c-16.954-7.7428-36.037-12.06-56.56-12.06-20.523 0-39.606 4.3175-56.56 12.06l-22.221-38.484c-1.2377-2.13-3.9434-2.8496-6.0734-1.6119-2.13 1.2377-2.8496 3.9434-1.6119 6.0734l21.933 37.994c-37.822 20.494-63.439 58.776-67.67 103.59h264.41c-4.2312-44.816-29.849-83.098-67.699-103.59zm-125.21 66.461c-6.1309 0-11.082-4.9796-11.082-11.082 0-6.1309 4.9796-11.082 11.082-11.082 6.1309 0 11.082 4.9796 11.082 11.082 0.0289 6.1021-4.9508 11.082-11.082 11.082zm121.38 0c-6.1309 0-11.082-4.9796-11.082-11.082 0-6.1309 4.9796-11.082 11.082-11.082 6.1309 0 11.082 4.9796 11.082 11.082 0.0288 6.1021-4.9508 11.082-11.082 11.082z" fill="#34de19" stroke-width=".28784"/>
</g>
<path d="m179.13 200a3.8011 3.8011 0 0 1-3.7876 3.801 3.8011 3.8011 0 0 1-3.8144-3.7741 3.8011 3.8011 0 0 1 3.7605-3.8278 3.8011 3.8011 0 0 1 3.8411 3.7469l-3.8007 0.0539z" fill="#fff" stroke-width=".26458"/>
<style type="text/css">.st0{fill:#32de84;}</style>
</svg>
