<svg xmlns="http://www.w3.org/2000/svg" viewBox="0 0 56.6 56.6" xmlns:v="https://vecta.io/nano"><path d="M30.8 6.162V1a1 1 0 0 0-.475-.851 1 1 0 0 0-.973-.044l-4 2A1 1 0 0 0 24.8 3v3.285C13.71 8.026 5.434 17.95 5.813 29.269c.326 9.803 7.159 18.177 16.284 20.834l-.462.077a1 1 0 0 0 .163 1.986c.055 0 .109-.004.165-.014l3.923-.654-1.994 1.994a1 1 0 0 0 0 1.414c.195.195.451.293.707.293s.512-.098.707-.293l2.493-2.493V55.6a1 1 0 1 0 2 0v-3.186l2.493 2.493c.196.196.452.293.708.293s.512-.098.707-.293a1 1 0 0 0 0-1.414l-1.865-1.865 3.761.752a1.03 1.03 0 0 0 .197.02 1 1 0 0 0 .195-1.981l-1.452-.29c3.383-.971 6.508-2.738 9.159-5.228C48.213 40.664 50.8 34.686 50.8 28.5c0-11.447-8.712-21.084-20-22.338zm11.533 37.282a20.43 20.43 0 0 1-6.891 4.279c3.482-2.688 6.41-6.437 8.111-10.609 2.516-6.167 2.23-12.764-.803-18.576a1 1 0 0 0-1.774.925c3.533 6.771 2.344 12.925.725 16.896-1.868 4.581-5.323 8.604-9.326 11.067 4.533-6.813 7.152-20.288 4.064-30.709a1 1 0 1 0-1.918.568c3.313 11.182-.286 24.935-4.722 30.272V13a1 1 0 1 0-2 0v34.556c-4.435-5.336-8.035-19.09-4.722-30.272a1 1 0 1 0-1.918-.568c-3.088 10.421-.469 23.897 4.064 30.709-4.002-2.463-7.457-6.486-9.326-11.067-1.619-3.971-2.809-10.125.725-16.896a1 1 0 1 0-1.774-.925c-3.033 5.812-3.318 12.409-.803 18.576 1.815 4.451 5.025 8.424 8.816 11.137-8.42-2.348-14.749-10.039-15.05-19.047-.353-10.587 7.598-19.834 18.104-21.052a1 1 0 0 0 .885-.993v-3.54l2-1v4.458a1 1 0 0 0 .931.998C40.424 8.814 48.8 17.786 48.8 28.5c0 5.719-2.297 11.026-6.467 14.944z"/></svg>