<?xml version="1.0" standalone="no"?>

<!DOCTYPE svg PUBLIC "-//W3C//DTD SVG 20010904//EN"
"http://www.w3.org/TR/2001/REC-SVG-20010904/DTD/svg10.dtd">
<svg version="1.0" xmlns="http://www.w3.org/2000/svg"
     width="128.000000pt" height="128.000000pt" viewBox="0 0 128.000000 128.000000"
     preserveAspectRatio="xMidYMid meet">
  <metadata>
    Created by potrace 1.15, written by Peter Selinger 2001-2017
  </metadata>
  <g transform="translate(0.000000,128.000000) scale(0.100000,-0.100000)"
     fill="#bf3d27" stroke="none">
    <path
      d="M500 1204 c-321 -86 -507 -413 -413 -727 43 -146 165 -292 295 -355
327 -159 712 7 817 352 25 82 28 233 6 316 -53 199 -220 364 -420 415 -74 19
-213 18 -285 -1z m242 -85 c222 -46 388 -249 388 -473 0 -138 -46 -251 -140
-346 -242 -243 -640 -175 -786 135 -171 361 147 766 538 684z" />
    <path
      d="M507 1060 c-157 -50 -270 -183 -299 -350 -43 -250 146 -490 400 -507 166 -12 309 57 403 194 136 197 75 488 -129 617 -104 66 -256 84 -375 46z m133 -190 c0 26z"
      fill="white" />
    <path
      d="M510 1072 c-78 -26 -116 -48 -167 -95 -117 -107 -171 -263 -144 -412
42 -230 246 -390 475 -372 188 14 345 136 397 307 27 91 24 228 -9 310 -44
111 -143 209 -252 251 -78 31 -226 36 -300 11z m86 -264 c-20 -29 -36 -60 -36
-68 0 -9 19 -35 43 -58 l44 -43 46 50 c26 28 47 53 47 56 0 3 -18 33 -40 66
-23 32 -37 59 -33 59 5 0 32 -16 61 -36 42 -27 59 -34 81 -29 31 7 43 -8 34
-43 -3 -13 8 -39 31 -73 20 -30 36 -57 36 -62 0 -4 -27 10 -59 33 -33 22 -63
40 -66 40 -11 0 -95 -83 -95 -94 0 -6 34 -45 76 -87 67 -67 73 -77 59 -89 -14
-12 -26 -3 -96 66 l-79 79 -78 -78 c-79 -79 -98 -89 -109 -61 -4 11 19 40 73
95 l78 79 -38 39 c-21 22 -47 41 -57 44 -11 3 -40 -10 -74 -35 -31 -22 -58
-38 -60 -36 -2 2 13 30 35 62 30 47 37 64 30 81 -11 30 5 45 40 38 21 -4 41 4
81 31 29 19 55 34 57 32 2 -3 -12 -28 -32 -58z" />
  </g>
</svg>