<?xml version="1.0" standalone="no"?>
<!DOCTYPE svg PUBLIC "-//W3C//DTD SVG 20010904//EN"
 "http://www.w3.org/TR/2001/REC-SVG-20010904/DTD/svg10.dtd">
<svg version="1.0" xmlns="http://www.w3.org/2000/svg"
 width="260.000000pt" height="260.000000pt" viewBox="0 0 260.000000 260.000000"
 preserveAspectRatio="xMidYMid meet">
<metadata>
Created by potrace 1.11, written by Peter Selinger 2001-2013
</metadata>
<g transform="translate(0.000000,260.000000) scale(0.100000,-0.100000)"
fill="#000000" stroke="none">
<path d="M1035 2531 l-210 -68 -3 -129 -3 -130 -72 -23 c-39 -13 -78 -26 -84
-28 -10 -4 -13 25 -13 125 l0 131 -72 -24 c-40 -13 -160 -51 -265 -85 l-193
-61 0 -220 c0 -282 20 -464 73 -661 l12 -46 528 166 527 165 440 -138 c413
-130 440 -140 434 -159 -21 -67 -67 -186 -77 -198 -10 -13 -64 1 -405 108
l-392 124 -483 -151 c-265 -83 -484 -153 -486 -155 -6 -5 108 -214 166 -304
31 -46 82 -119 114 -161 l58 -77 315 100 316 99 212 -67 c117 -36 215 -68 217
-69 22 -22 -382 -375 -429 -375 -9 0 -56 31 -105 68 l-90 68 -97 -30 c-54 -17
-98 -33 -98 -37 0 -13 167 -147 259 -208 136 -91 123 -88 194 -45 93 57 231
163 333 256 162 147 366 386 342 398 -7 4 -176 58 -376 120 l-362 114 -278
-87 c-152 -48 -280 -87 -285 -87 -9 0 -137 194 -137 208 0 6 24 18 52 26 29 9
187 58 350 109 l298 94 441 -138 c242 -77 443 -139 445 -139 7 0 82 164 120
264 42 109 96 308 86 316 -12 11 -1071 340 -1092 340 -12 0 -221 -63 -466
-140 -245 -77 -449 -140 -454 -140 -15 0 -34 200 -34 374 l-1 179 83 28 82 28
0 -130 c0 -71 1 -129 3 -129 1 0 119 38 262 83 l260 83 3 130 3 130 129 41
130 40 130 -40 129 -41 3 -130 3 -130 260 -83 c143 -45 261 -83 263 -83 1 0 2
58 2 129 l0 130 83 -28 82 -28 3 -130 3 -130 74 -22 c40 -11 81 -24 89 -27 14
-5 16 19 16 220 l0 225 -192 61 c-106 34 -226 72 -265 85 l-73 24 0 -131 c0
-100 -3 -129 -12 -125 -7 2 -46 15 -85 28 l-72 23 -3 130 -3 129 -215 68
c-118 38 -219 68 -225 68 -5 -1 -104 -31 -220 -68z"/>
</g>
</svg>
